<?xml version="1.0" encoding="UTF-8"?>
<svg version="1.1" xmlns="http://www.w3.org/2000/svg" width="324" height="308">
<path d="M0 0 C26.73 0 53.46 0 81 0 C76.74336046 6.68900499 72.61612605 13.07215875 67.8125 19.3125 C64.3884208 23.78947268 61.0712536 28.27217524 58 33 C59.52367187 33.23783203 59.52367187 33.23783203 61.078125 33.48046875 C79.65938164 36.55429869 95.94413225 43.95345718 108 59 C116.43891487 70.81586199 121.14327799 84.1009614 121.11010742 98.6628418 C121.11068649 99.94495041 121.11126556 101.22705902 121.11186218 102.54801941 C121.11043402 103.2239382 121.10900585 103.89985699 121.10753441 104.59625816 C121.10396742 108.22765575 121.12987124 111.85890745 121.15039062 115.49023438 C121.17463562 120.08729027 121.19047332 124.68389503 121.17504883 129.28100586 C121.16328775 133.01777263 121.1810409 136.75343542 121.21749306 140.49003029 C121.22602018 141.90075117 121.2241653 143.31158013 121.210989 144.72226524 C121.12449629 154.73208583 122.98858451 161.38428855 128 170 C128.33 170.99 128.66 171.98 129 173 C129.65782471 172.70867187 130.31564941 172.41734375 130.9934082 172.1171875 C137.55148716 169.21541293 144.1161979 166.32915455 150.68603516 163.45410156 C153.65264279 162.15241341 156.61369024 160.83886706 159.57421875 159.5234375 C161.21576344 158.80641558 162.85766619 158.0902126 164.5 157.375 C165.23259033 157.045 165.96518066 156.715 166.7199707 156.375 C173.03708085 153.65615181 179.43186436 152.03745953 186.1875 154 C190.56158344 155.88960405 193.41271488 159.06088078 196 163 C197.80928344 168.42785032 197.81051295 173.87401484 195.5625 179.1875 C190.49713681 187.72836786 179.33262368 191.5093029 170.73352051 195.71783447 C167.13631347 197.47874364 163.54913552 199.25988715 159.9609375 201.0390625 C159.25855957 201.38673676 158.55618164 201.73441101 157.83251953 202.09262085 C152.59478509 204.69015041 147.40703661 207.37051366 142.25 210.125 C140.02893262 211.29896399 137.80631579 212.46993354 135.58300781 213.63964844 C133.66407611 214.65026162 131.74705524 215.66450475 129.83105469 216.68066406 C126.8666427 218.24435587 123.89494932 219.79107727 120.91442871 221.32366943 C119.2137342 222.20406512 117.52305188 223.10372287 115.83300781 224.00439453 C96.62309354 233.81809376 74.56902044 237.37812443 53.70580292 242.29225159 C49.97047493 243.17324528 46.23647182 244.05981461 42.50244141 244.94628906 C41.00662275 245.3013629 39.51080366 245.65643493 38.01498413 246.01150513 C37.27962811 246.18607365 36.54427208 246.36064217 35.78663254 246.54050064 C33.58423487 247.06310264 31.3816911 247.58508461 29.17910767 248.10690308 C16.52266028 251.10632814 3.88139892 254.16584563 -8.75195312 257.26098633 C-10.65750977 257.72734497 -10.65750977 257.72734497 -12.6015625 258.203125 C-13.79426758 258.49509766 -14.98697266 258.78707031 -16.21582031 259.08789062 C-19.02537278 259.7650834 -21.83631103 260.43046086 -24.65136719 261.08398438 C-25.82196182 261.35622833 -25.82196182 261.35622833 -27.01620483 261.63397217 C-28.53131264 261.98529747 -30.04693905 262.33439576 -31.56314087 262.68096924 C-35.38297313 263.54217288 -35.38297313 263.54217288 -39 265 C-37.35 267.64 -35.7 270.28 -34 273 C-35.59739406 274.87520172 -37.20561349 276.74183812 -38.85476685 278.57168579 C-40.29300097 280.19970667 -41.67390727 281.88008316 -42.99459839 283.60482788 C-47.02563778 288.40228101 -50.28051283 291.47039526 -56.72926521 292.06040382 C-60.47672797 292.19352035 -64.19898196 292.10425713 -67.9453125 291.9765625 C-69.5676535 291.95787634 -71.19005152 291.94365822 -72.81246948 291.9336853 C-77.05216393 291.89577222 -81.28835023 291.7977982 -85.52667236 291.68664551 C-89.86365303 291.58375033 -94.20120918 291.5385507 -98.5390625 291.48828125 C-107.02763939 291.38151198 -115.51338156 291.21119092 -124 291 C-124.48876657 277.97889116 -124.86075807 264.95999558 -125.08805561 251.93154907 C-125.19721686 245.8797594 -125.34492641 239.83428567 -125.58422852 233.78613281 C-127.22088419 191.36040399 -127.22088419 191.36040399 -119.33740234 182.1796875 C-113.94903218 177.46237605 -107.37688999 173 -100 173 C-98.29589827 175.30745381 -96.79183756 177.55567191 -95.3125 180 C-94.89677734 180.66773438 -94.48105469 181.33546875 -94.05273438 182.0234375 C-93.02555776 183.67636538 -92.01152664 185.33744888 -91 187 C-85.61643635 181.27777399 -80.48840487 175.46887513 -75.6875 169.25 C-54.52660359 142.01234152 -54.52660359 142.01234152 -40 138 C-40.01047363 136.80101074 -40.02094727 135.60202148 -40.03173828 134.36669922 C-40.06836009 129.85273306 -40.09105151 125.33877959 -40.10986328 120.82470703 C-40.11982592 118.8832782 -40.13340092 116.941864 -40.15087891 115.00048828 C-40.36409371 90.68145831 -38.09951986 70.84333857 -20.62109375 52.50390625 C-8.11402367 40.59910279 6.23016189 35.64476699 23 33 C22.65855957 32.52804199 22.31711914 32.05608398 21.96533203 31.56982422 C18.55683379 26.85730421 15.15166559 22.14239538 11.74951172 17.42529297 C10.63452971 15.87962854 9.51902544 14.33434062 8.40283203 12.78955078 C6.99532052 10.84058244 5.59091291 8.8894208 4.1875 6.9375 C3.76162598 6.34888184 3.33575195 5.76026367 2.89697266 5.15380859 C0 1.11453864 0 1.11453864 0 0 Z " fill="#FBC69F" transform="translate(125,5)"/>
<path d="M0 0 C26.73 0 53.46 0 81 0 C76.74336046 6.68900499 72.61612605 13.07215875 67.8125 19.3125 C64.3884208 23.78947268 61.0712536 28.27217524 58 33 C59.52367187 33.23783203 59.52367187 33.23783203 61.078125 33.48046875 C81.10552977 36.79352973 98.09858774 45.40274809 110.25 62.08984375 C111.74020455 64.56797408 112.55720039 66.21214011 113.0625 69 C113.85259756 72.68479126 115.2818097 75.63521067 117 79 C120.17451763 88.34719079 120.15480361 97.85307471 120.22979546 107.620718 C120.24643534 109.71087648 120.26967253 111.80087136 120.29469299 113.89094543 C120.36488241 119.82654471 120.42567897 125.76220399 120.47680664 131.69799805 C120.50868618 135.34596656 120.54996298 138.99373179 120.59700203 142.64153481 C120.61294267 144.02370868 120.62530056 145.40592896 120.63390923 146.78816795 C120.64613465 148.72107777 120.67132679 150.65389224 120.69702148 152.58666992 C120.71248268 154.23139534 120.71248268 154.23139534 120.72825623 155.90934753 C121.20888193 161.37569919 123.17905602 165.38390986 126 170 C126 170.66 126 171.32 126 172 C126.66 172 127.32 172 128 172 C128 172.99 128 173.98 128 175 C121.13004198 178.23535097 114.19488397 181.12266264 107.08984375 183.80078125 C103.63036917 185.14345975 100.26206233 186.62966754 96.90234375 188.203125 C93.42709366 189.65887658 90.27077857 190.12643685 86.51499939 190.14717102 C85.17540413 190.15790398 85.17540413 190.15790398 83.80874634 190.16885376 C82.35062027 190.17288712 82.35062027 190.17288712 80.86303711 190.17700195 C79.31857155 190.18685875 79.31857155 190.18685875 77.74290466 190.19691467 C74.33771696 190.21661798 70.93257317 190.22830014 67.52734375 190.23828125 C66.36530489 190.24235678 65.20326603 190.2464323 64.00601387 190.25063133 C57.86232812 190.27147361 51.71866462 190.28578659 45.57495117 190.29516602 C39.21687636 190.30626142 32.85914855 190.34070274 26.50119686 190.38033772 C21.62084784 190.4064132 16.74058293 190.41484948 11.86017036 190.41844749 C9.51532189 190.42333242 7.17047764 190.4350001 4.82569695 190.45348549 C1.55270192 190.47769662 -1.7193755 190.47694547 -4.99243164 190.4699707 C-6.45359406 190.48918579 -6.45359406 190.48918579 -7.9442749 190.50878906 C-8.83451859 190.50184525 -9.72476227 190.49490143 -10.64198303 190.48774719 C-11.80256273 190.49132972 -11.80256273 190.49132972 -12.98658848 190.49498463 C-15 190 -15 190 -16.77628231 188.1960783 C-18.63998603 184.85148394 -17.99944602 182.59800567 -17 179 C-9.37061261 173.44638866 5.93937093 177.29697722 14.625 178.5 C37.88414694 181.9671942 37.88414694 181.9671942 60 176 C60.81597656 175.55269531 61.63195312 175.10539063 62.47265625 174.64453125 C69.23360579 170.54398787 73.48550468 165.54348595 76 158 C76.66 158 77.32 158 78 158 C78 155.36 78 152.72 78 150 C77.38592285 149.91959473 76.7718457 149.83918945 76.13916016 149.75634766 C73.30064141 149.38267599 70.46283032 149.0038631 67.625 148.625 C66.65949219 148.49867188 65.69398438 148.37234375 64.69921875 148.2421875 C58.40833827 147.39777401 52.20705538 146.32728415 46 145 C46 142.69 46 140.38 46 138 C46.99580078 137.65388672 46.99580078 137.65388672 48.01171875 137.30078125 C53.38201477 135.31729965 57.33851657 133.60638238 61 129 C62.04976964 125.85069107 62.10131595 123.61185544 62.0625 120.3125 C62.05347656 119.31863281 62.04445313 118.32476562 62.03515625 117.30078125 C62.02355469 116.54152344 62.01195312 115.78226562 62 115 C61.38769531 114.7009375 60.77539062 114.401875 60.14453125 114.09375 C58 113 58 113 55.6875 111.5 C52.43372875 109.54957479 52.43372875 109.54957479 46 108 C46 103.05 46 98.1 46 93 C53.6142132 93.88832487 53.6142132 93.88832487 56.375 94.6875 C56.91125 94.790625 57.4475 94.89375 58 95 C60.35953094 92.64046906 60.49141413 91.22104383 61 88 C59.43840941 87.51787786 57.87568072 87.03944127 56.3125 86.5625 C55.44238281 86.29566406 54.57226562 86.02882813 53.67578125 85.75390625 C51.12974079 85.03655471 48.5996577 84.482459 46 84 C46 81.03 46 78.06 46 75 C42.535 75.99 42.535 75.99 39 77 C39 79.31 39 81.62 39 84 C38.26394531 84.17015625 37.52789062 84.3403125 36.76953125 84.515625 C29.08029624 86.27237777 29.08029624 86.27237777 23 91 C20.68920324 96.35684702 20.43631448 101.41690809 22 107 C25.82704113 112.86812974 31.52211649 113.517111 38 115 C38 119.62 38 124.24 38 129 C30.93860465 129.44133721 27.11548171 128.55809845 21 125 C20.01 128.3 19.02 131.6 18 135 C18.99 135 19.98 135 21 135 C21 135.66 21 136.32 21 137 C22.65 137 24.3 137 26 137 C26 137.66 26 138.32 26 139 C29.63 139 33.26 139 37 139 C37 140.32 37 141.64 37 143 C26.83870522 142.44773332 16.85022892 141.27971153 6.78271484 139.84326172 C4.34414971 139.49560175 1.90461441 139.15549302 -0.53515625 138.81640625 C-2.09901908 138.59678629 -3.6628235 138.37674994 -5.2265625 138.15625 C-5.94945465 138.05517944 -6.6723468 137.95410889 -7.41714478 137.84997559 C-10.66636226 137.38418867 -13.82392925 136.82293085 -17 136 C-18.89399982 135.90680753 -20.79121533 135.87004239 -22.6875 135.875 C-23.66074219 135.87242187 -24.63398437 135.86984375 -25.63671875 135.8671875 C-28.36521617 135.97493304 -31.00125378 136.19779894 -33.71020508 136.50830078 C-34.91765129 136.64572189 -34.91765129 136.64572189 -36.14949036 136.78591919 C-36.76015854 136.85656586 -37.37082672 136.92721252 -38 137 C-38.15356692 129.44208152 -38.2578032 121.88457292 -38.32958984 114.32543945 C-38.3595514 111.76018236 -38.40033548 109.19502583 -38.45263672 106.63012695 C-38.89835538 84.19125144 -36.5448401 69.21207361 -20.62109375 52.50390625 C-8.11402367 40.59910279 6.23016189 35.64476699 23 33 C22.48783936 32.29206299 22.48783936 32.29206299 21.96533203 31.56982422 C18.55683379 26.85730421 15.15166559 22.14239538 11.74951172 17.42529297 C10.63452971 15.87962854 9.51902544 14.33434062 8.40283203 12.78955078 C6.99532052 10.84058244 5.59091291 8.8894208 4.1875 6.9375 C3.76162598 6.34888184 3.33575195 5.76026367 2.89697266 5.15380859 C0 1.11453864 0 1.11453864 0 0 Z " fill="#87B338" transform="translate(125,5)"/>
<path d="M0 0 C1.97265625 2.44921875 1.97265625 2.44921875 4.0625 5.6875 C4.75472656 6.74324219 5.44695313 7.79898438 6.16015625 8.88671875 C8 12 8 12 8.92895508 14.40332031 C10.03408477 17.08263635 11.35570138 19.26119227 12.9765625 21.66015625 C13.56115234 22.5305957 14.14574219 23.40103516 14.74804688 24.29785156 C15.36744141 25.21018555 15.98683594 26.12251953 16.625 27.0625 C17.57342773 28.47160645 17.57342773 28.47160645 18.54101562 29.90917969 C19.79414286 31.77087691 21.04898026 33.63142434 22.30566406 35.49072266 C24.38380515 38.56840768 26.44376321 41.65764389 28.5 44.75 C29.11101563 45.66652344 29.72203125 46.58304688 30.3515625 47.52734375 C34.875 54.3125 34.875 54.3125 36.29296875 56.44140625 C37.68915136 58.53408271 39.08812993 60.62482347 40.48828125 62.71484375 C41.38802618 64.05989226 42.28776574 65.40494436 43.1875 66.75 C43.61595215 67.38848877 44.0444043 68.02697754 44.48583984 68.68481445 C46.75141128 72.07428353 48.90714124 75.50027508 51 79 C54.60262481 84.42574487 58.33266586 89.6257562 62.73828125 94.4296875 C64.14451504 96.17986083 65.06229798 97.9661111 66 100 C64.43427936 101.85605295 62.84718983 103.68243401 61.21896362 105.48428345 C59.75678543 107.14200593 58.34926401 108.84982283 57.00540161 110.60482788 C52.97436222 115.40228101 49.71948717 118.47039526 43.27073479 119.06040382 C39.52327203 119.19352035 35.80101804 119.10425713 32.0546875 118.9765625 C30.4323465 118.95787634 28.80994848 118.94365822 27.18753052 118.9336853 C22.94783607 118.89577222 18.71164977 118.7977982 14.47332764 118.68664551 C10.13634697 118.58375033 5.79879082 118.5385507 1.4609375 118.48828125 C-7.02763939 118.38151198 -15.51338156 118.21119092 -24 118 C-24.48876657 104.97889116 -24.86075807 91.95999558 -25.08805561 78.93154907 C-25.19721686 72.8797594 -25.34492641 66.83428567 -25.58422852 60.78613281 C-27.22088419 18.36040399 -27.22088419 18.36040399 -19.33740234 9.1796875 C-13.94903218 4.46237605 -7.37688999 0 0 0 Z " fill="#58387B" transform="translate(25,178)"/>
<path d="M0 0 C5.95914583 4.06305398 7.74686993 8.27078563 10 15 C10.433125 16.15435547 10.433125 16.15435547 10.875 17.33203125 C14.22667688 26.53302885 14.15534654 35.92379103 14.22979546 45.620718 C14.24643534 47.71087648 14.26967253 49.80087136 14.29469299 51.89094543 C14.36488241 57.82654471 14.42567897 63.76220399 14.47680664 69.69799805 C14.50868618 73.34596656 14.54996298 76.99373179 14.59700203 80.64153481 C14.61294267 82.02370868 14.62530056 83.40592896 14.63390923 84.78816795 C14.64613465 86.72107777 14.67132679 88.65389224 14.69702148 90.58666992 C14.71248268 92.23139534 14.71248268 92.23139534 14.72825623 93.90934753 C15.20888193 99.37569919 17.17905602 103.38390986 20 108 C20 108.66 20 109.32 20 110 C20.66 110 21.32 110 22 110 C22 110.99 22 111.98 22 113 C15.13004198 116.23535097 8.19488397 119.12266264 1.08984375 121.80078125 C-2.36963083 123.14345975 -5.73793767 124.62966754 -9.09765625 126.203125 C-12.57290634 127.65887658 -15.72922143 128.12643685 -19.48500061 128.14717102 C-20.82459587 128.15790398 -20.82459587 128.15790398 -22.19125366 128.16885376 C-23.64937973 128.17288712 -23.64937973 128.17288712 -25.13696289 128.17700195 C-26.68142845 128.18685875 -26.68142845 128.18685875 -28.25709534 128.19691467 C-31.66228304 128.21661798 -35.06742683 128.22830014 -38.47265625 128.23828125 C-39.63469511 128.24235678 -40.79673397 128.2464323 -41.99398613 128.25063133 C-48.13767188 128.27147361 -54.28133538 128.28578659 -60.42504883 128.29516602 C-66.78312364 128.30626142 -73.14085145 128.34070274 -79.49880314 128.38033772 C-84.37915216 128.4064132 -89.25941707 128.41484948 -94.13982964 128.41844749 C-96.48467811 128.42333242 -98.82952236 128.4350001 -101.17430305 128.45348549 C-104.44729808 128.47769662 -107.7193755 128.47694547 -110.99243164 128.4699707 C-112.45359406 128.48918579 -112.45359406 128.48918579 -113.9442749 128.50878906 C-114.83451859 128.50184525 -115.72476227 128.49490143 -116.64198303 128.48774719 C-117.80256273 128.49132972 -117.80256273 128.49132972 -118.98658848 128.49498463 C-121 128 -121 128 -122.77628231 126.1960783 C-124.63998603 122.85148394 -123.99944602 120.59800567 -123 117 C-115.37061261 111.44638866 -100.06062907 115.29697722 -91.375 116.5 C-68.11585306 119.9671942 -68.11585306 119.9671942 -46 114 C-45.18402344 113.55269531 -44.36804688 113.10539062 -43.52734375 112.64453125 C-36.76639421 108.54398787 -32.51449532 103.54348595 -30 96 C-29.34 96 -28.68 96 -28 96 C-28 93.36 -28 90.72 -28 88 C-33.94 87.01 -33.94 87.01 -40 86 C-38.68 83.69 -37.36 81.38 -36 79 C-35.34 79 -34.68 79 -34 79 C-33.505 77.02 -33.505 77.02 -33 75 C-32.34 75 -31.68 75 -31 75 C-30.88914062 74.41992188 -30.77828125 73.83984375 -30.6640625 73.2421875 C-29.92641318 70.75153626 -28.90008336 69.22097018 -27.375 67.125 C-24.31487245 62.67790817 -21.89995737 58.01077643 -19.54760742 53.16796875 C-17.87953288 49.73788293 -16.12101771 46.41198011 -14.1875 43.125 C-11.93314381 39.17246102 -10.89064916 35.45324581 -10 31 C-9.34 31 -8.68 31 -8 31 C-7.89042969 30.2265625 -7.78085938 29.453125 -7.66796875 28.65625 C-6.8380286 23.20428546 -5.90886214 18.18662904 -3.796875 13.08984375 C-2.17706936 8.84182405 -1.13956465 4.39661824 0 0 Z " fill="#6C942B" transform="translate(231,67)"/>
<path d="M0 0 C0.495 0.99 0.495 0.99 1 2 C1.99 2 2.98 2 4 2 C4.556875 3.051875 5.11375 4.10375 5.6875 5.1875 C7.21112389 7.90162572 8.43076749 9.41118715 10.75 11.625 C13 14 13 14 13.2791748 16.40136719 C12.60029186 22.72058894 7.41388802 27.49778697 2.8515625 31.54296875 C-8.02528067 39.24789034 -24.33549494 36.65492648 -37.01153564 36.09863281 C-41.18736591 35.93311954 -45.36478447 35.86150278 -49.54296875 35.78125 C-57.70012326 35.61108405 -65.84776504 35.33046166 -74 35 C-74 30.38 -74 25.76 -74 21 C-72.76507813 20.84144531 -71.53015625 20.68289063 -70.2578125 20.51953125 C-68.54644386 20.28700556 -66.83553692 20.05106709 -65.125 19.8125 C-64.22692627 19.68738037 -63.32885254 19.56226074 -62.40356445 19.43334961 C-55.36859308 18.37720887 -48.69646694 16.68824707 -42.00244141 14.2746582 C-39.19642705 13.36331154 -36.90656885 12.64786836 -34.08105469 13.74536133 C-32.35202711 14.7729779 -30.67354505 15.8843033 -29 17 C-25.89183075 17.77973104 -24.30970989 17.48044176 -21 17 C-17.40390842 14.38466067 -15.93414676 11.89908355 -14.375 7.875 C-13.04676998 4.92399523 -12.3674801 4.15810818 -9.33984375 2.85546875 C-6.57157801 2.13036172 -3.8046783 1.56093566 -1 1 C-0.67 0.67 -0.34 0.34 0 0 Z " fill="#3E2958" transform="translate(76,260)"/>
<path d="M0 0 C0 2.97 0 5.94 0 9 C1.175625 9.103125 2.35125 9.20625 3.5625 9.3125 C7.82485903 9.82914958 11.14087534 11.1508361 15 13 C15.23053497 15.84326464 15.35903101 17.46145349 13.75 19.875 C12 21 12 21 10.15625 20.63671875 C9.08890625 20.32154297 9.08890625 20.32154297 8 20 C7.29359375 19.82339844 6.5871875 19.64679688 5.859375 19.46484375 C3.90625 18.9765625 1.953125 18.48828125 0 18 C0 22.95 0 27.9 0 33 C1.340625 33.226875 2.68125 33.45375 4.0625 33.6875 C9.06433898 34.78585011 12.08223586 36.73519655 16 40 C17.72922412 43.45844824 17.35136443 47.21165265 17 51 C15.30956342 55.71542836 13.18806242 58.27288958 9 61 C5.31733355 62.50312916 3.01797629 63 -1 63 C-1 64.98 -1 66.96 -1 69 C-2.98 69 -4.96 69 -7 69 C-7 67.02 -7 65.04 -7 63 C-7.7734375 62.96261719 -8.546875 62.92523438 -9.34375 62.88671875 C-15.82241629 62.47779303 -21.05882698 61.62782653 -27 59 C-27.25 53.375 -27.25 53.375 -25 50 C-22.85967019 50.4586421 -21.08815337 50.952188 -19.15625 52 C-15.56605084 53.6650199 -11.91953587 53.6541586 -8 54 C-8 49.38 -8 44.76 -8 40 C-9.711875 39.7525 -11.42375 39.505 -13.1875 39.25 C-17.78721516 38.40455107 -20.80215724 37.61046763 -24 34 C-26.66622709 28.58451452 -26.19648273 23.79901118 -25 18 C-22.53951252 13.62580004 -19.64612582 11.78697147 -15 10 C-12.32170577 9.50204999 -9.72090147 9.23456047 -7 9 C-7 6.69 -7 4.38 -7 2 C-2.25 0 -2.25 0 0 0 Z " fill="#F7FBF0" transform="translate(171,80)"/>
<path d="M0 0 C12.8882333 1.81677003 25.63379531 1.80833555 38.625 1.5 C38.625 2.16 38.625 2.82 38.625 3.5 C30.045 3.5 21.465 3.5 12.625 3.5 C12.625 4.16 12.625 4.82 12.625 5.5 C11.305 5.83 9.985 6.16 8.625 6.5 C8.625 7.16 8.625 7.82 8.625 8.5 C7.305 8.83 5.985 9.16 4.625 9.5 C4.625 10.16 4.625 10.82 4.625 11.5 C-0.16212933 11.59886835 -4.94866475 11.67146623 -9.73657227 11.71972656 C-11.36525829 11.73984381 -12.99387208 11.76714137 -14.62231445 11.80175781 C-16.96323458 11.85027429 -19.30320018 11.87296632 -21.64453125 11.890625 C-22.37275589 11.91127014 -23.10098053 11.93191528 -23.85127258 11.95318604 C-27.10658044 11.95463135 -28.89709703 11.93239679 -31.36206055 9.70214844 C-32.9144177 6.32729631 -32.3500801 4.01028837 -31.375 0.5 C-23.7805852 -5.02815397 -8.65081082 -1.22089196 0 0 Z " fill="#8DB13D" transform="translate(139.375,183.5)"/>
<path d="M0 0 C3 2.4375 3 2.4375 5 5 C5.33 5.33 5.66 5.66 6 6 C6.57413536 10.55543464 6.63047301 13.97819891 4.1875 17.9375 C0.52424839 21.39142294 -1.91127713 22.50287624 -7 22.390625 C-10.38957201 21.72859922 -11.92924812 19.61889209 -14 17 C-16.4915904 13.2626144 -16.45793285 11.42668417 -16 7 C-11.87879541 0.60502736 -7.37423567 -1.31960007 0 0 Z " fill="#D1CED4" transform="translate(56,256)"/>
<path d="M0 0 C-2.2898234 1.0044134 -4.5816599 2.00367612 -6.875 3 C-7.52597656 3.28617188 -8.17695312 3.57234375 -8.84765625 3.8671875 C-13.7734375 6 -13.7734375 6 -16 6 C-16.33 7.32 -16.66 8.64 -17 10 C-17.66 10 -18.32 10 -19 10 C-19 10.66 -19 11.32 -19 12 C-20.38251358 12.97787546 -21.77391171 13.94557388 -23.20703125 14.84765625 C-25.11624675 16.07471197 -26.92596252 17.40013578 -28.75 18.75 C-32 21 -32 21 -34 21 C-34.020625 21.99 -34.04125 22.98 -34.0625 24 C-34.75402236 29.12355204 -38.24527652 32.66150453 -42 36 C-42.66 36 -43.32 36 -44 36 C-44.19335938 36.68707031 -44.38671875 37.37414062 -44.5859375 38.08203125 C-44.84632812 38.98308594 -45.10671875 39.88414063 -45.375 40.8125 C-45.63023438 41.70582031 -45.88546875 42.59914062 -46.1484375 43.51953125 C-47 46 -47 46 -49 49 C-48.02704522 34.72999657 -39.2661296 22.74761489 -29.1875 13.1875 C-22.40953307 7.38833885 -9.50632718 -3.16877573 0 0 Z " fill="#B1CB7E" transform="translate(136,42)"/>
<path d="M0 0 C26.73 0 53.46 0 81 0 C74 11 74 11 72 12 C71.957279 10.33388095 71.95936168 8.66617115 72 7 C72.33 6.67 72.66 6.34 73 6 C72.01 5.34 71.02 4.68 70 4 C70.33 3.34 70.66 2.68 71 2 C71.99 2 72.98 2 74 2 C50.57 1.67 27.14 1.34 3 1 C4.65 2.65 6.3 4.3 8 6 C9.41247751 8.33386184 10.11065051 10.38135984 11 13 C10.67 13.66 10.34 14.32 10 15 C8.33048421 12.6895094 6.66428386 10.37675417 5 8.0625 C4.52304688 7.40314453 4.04609375 6.74378906 3.5546875 6.06445312 C0 1.11328125 0 1.11328125 0 0 Z " fill="#9AB46C" transform="translate(125,5)"/>
<path d="M0 0 C2.37155154 2.90531955 3.79374061 5.6012391 5.0625 9.125 C5.38347656 9.99382812 5.70445312 10.86265625 6.03515625 11.7578125 C8.65030409 20.54555625 9.27525038 28.81097995 9.24382973 37.97457886 C9.2381491 40.1122284 9.24753405 42.24935268 9.2610321 44.38696289 C9.29780652 50.45689529 9.31671753 56.52663841 9.30541992 62.59667969 C9.29952899 66.33028838 9.31800888 70.06314511 9.35130882 73.79660034 C9.35919156 75.20618587 9.35808393 76.61585494 9.34728432 78.02542114 C9.28846013 86.04336228 9.68865467 92.06719695 14.02629089 98.95141602 C15 101 15 101 14.64985657 103.26928711 C14.32817757 104.12598999 14.32817757 104.12598999 14 105 C13.17779151 103.77730619 12.36766766 102.54648216 11.5625 101.3125 C11.11003906 100.62800781 10.65757812 99.94351563 10.19140625 99.23828125 C7.89682185 94.92747186 7.86536152 90.50740428 7.81054688 85.70019531 C7.79382935 84.44829407 7.77711182 83.19639282 7.7598877 81.90655518 C7.75320572 81.24237831 7.74652374 80.57820145 7.73963928 79.89389801 C7.7184559 77.79904074 7.69144308 75.70432812 7.66296387 73.60955811 C7.60346728 69.15642911 7.55127904 64.70323016 7.5 60.25 C7.44048704 55.09955087 7.37789256 49.94917217 7.30812073 44.79885101 C7.28183821 42.74900127 7.26084476 40.6991432 7.2401123 38.64923096 C7.18400424 25.67811472 7.18400424 25.67811472 4.0625 13.1875 C3.72347656 12.29417969 3.38445312 11.40085937 3.03515625 10.48046875 C2.06256332 8.03023888 2.06256332 8.03023888 0.87109375 5.92578125 C0 4 0 4 0 0 Z " fill="#D0E1B3" transform="translate(237,72)"/>
<path d="M0 0 C0.33 0.99 0.66 1.98 1 3 C2.01126953 3.19916016 2.01126953 3.19916016 3.04296875 3.40234375 C6.47217668 4.09543333 9.89208429 4.82727045 13.3125 5.5625 C14.56675781 5.83191406 15.82101563 6.10132813 17.11328125 6.37890625 C18.06589844 6.58386719 19.01851562 6.78882813 20 7 C20 9.31 20 11.62 20 14 C17.02046641 13.85982174 14.04150696 13.71313658 11.0625 13.5625 C10.21236328 13.52318359 9.36222656 13.48386719 8.48632812 13.44335938 C7.67744141 13.40146484 6.86855469 13.35957031 6.03515625 13.31640625 C4.91185913 13.26141968 4.91185913 13.26141968 3.76586914 13.20532227 C2 13 2 13 1 12 C-0.62050489 11.72617248 -2.25063629 11.50880791 -3.8828125 11.31640625 C-5.38714844 11.13174805 -5.38714844 11.13174805 -6.921875 10.94335938 C-9.0337232 10.69225547 -11.14570001 10.44223049 -13.2578125 10.19335938 C-18.69485072 9.52413209 -23.78939432 8.70488656 -29 7 C-29 6.67 -29 6.34 -29 6 C-18.33215802 6.51219771 -7.93777437 7.96576557 2.59960938 9.62695312 C6.14558929 10.17803707 9.69694236 10.68403029 13.25 11.1875 C14.36890625 11.34605469 15.4878125 11.50460938 16.640625 11.66796875 C17.41921875 11.77753906 18.1978125 11.88710937 19 12 C19 10.68 19 9.36 19 8 C15.37 8 11.74 8 8 8 C8 7.34 8 6.68 8 6 C6.35 6 4.7 6 3 6 C3 5.34 3 4.68 3 4 C2.01 4 1.02 4 0 4 C0 2.68 0 1.36 0 0 Z " fill="#D7C785" transform="translate(143,136)"/>
<path d="M0 0 C0 4.95 0 9.9 0 15 C-4.90937574 14.01812485 -6.65946871 13.53141879 -10 10 C-10.6875 7 -10.6875 7 -10 4 C-6.41354184 0.90260432 -4.78912885 0 0 0 Z " fill="#99BC5A" transform="translate(164,97)"/>
<path d="M0 0 C-2.2898234 1.0044134 -4.5816599 2.00367612 -6.875 3 C-7.52597656 3.28617188 -8.17695312 3.57234375 -8.84765625 3.8671875 C-13.7734375 6 -13.7734375 6 -16 6 C-16.33 7.32 -16.66 8.64 -17 10 C-17.66 10 -18.32 10 -19 10 C-19 10.66 -19 11.32 -19 12 C-20.38075343 12.97663048 -21.76986321 13.94364857 -23.19921875 14.84765625 C-26.21735039 16.77899862 -29.09265385 18.90671077 -32 21 C-32.66 20.67 -33.32 20.34 -34 20 C-32.28642053 18.28642053 -30.57198738 16.57390382 -28.8515625 14.8671875 C-27.42462031 13.42820361 -26.04520565 11.94198464 -24.6875 10.4375 C-18.84461725 5.13814122 -8.2005505 -2.73351683 0 0 Z " fill="#8EB24A" transform="translate(136,42)"/>
<path d="M0 0 C23.76 0 47.52 0 72 0 C71.01 0.99 70.02 1.98 69 3 C68.505 2.505 68.505 2.505 68 2 C66.0064857 1.87630675 64.0086353 1.8220361 62.01147461 1.79467773 C60.73022202 1.77473251 59.44896942 1.75478729 58.12889099 1.73423767 C56.72004316 1.71725203 55.31119405 1.70037327 53.90234375 1.68359375 C52.46887095 1.66303085 51.03540431 1.64203456 49.60194397 1.62062073 C45.8224688 1.56533141 42.0429383 1.51595255 38.2633667 1.46777344 C34.40925145 1.41760835 30.55521691 1.36189629 26.70117188 1.30664062 C19.13418286 1.19897521 11.5671269 1.09754903 4 1 C3.67 1.99 3.34 2.98 3 4 C2.01 3.34 1.02 2.68 0 2 C0 1.34 0 0.68 0 0 Z " fill="#8BAF46" transform="translate(128,6)"/>
<path d="M0 0 C6.69693729 0.54892929 13.30231586 1.45919909 19.9375 2.5 C20.77837158 2.63059814 21.61924316 2.76119629 22.4855957 2.89575195 C23.68188599 3.08657349 23.68188599 3.08657349 24.90234375 3.28125 C25.97730103 3.45237305 25.97730103 3.45237305 27.07397461 3.62695312 C29 4 29 4 32 5 C32 7.64 32 10.28 32 13 C31.34 13 30.68 13 30 13 C29.67 13.66 29.34 14.32 29 15 C29.33 12.03 29.66 9.06 30 6 C29.12859375 5.95101562 28.2571875 5.90203125 27.359375 5.8515625 C5.19121081 4.46005436 5.19121081 4.46005436 0 0 Z " fill="#E0C888" transform="translate(171,150)"/>
<path d="M0 0 C7.42114299 0.50258461 14.82105778 1.02244417 22.20703125 1.9140625 C23.09455078 1.95660156 23.09455078 1.95660156 24 2 C24.33 1.67 24.66 1.34 25 1 C26.51928038 0.92820036 28.04167482 0.91607993 29.5625 0.9375 C30.38878906 0.94652344 31.21507812 0.95554688 32.06640625 0.96484375 C32.70449219 0.97644531 33.34257812 0.98804688 34 1 C34 2.32 34 3.64 34 5 C22.52814175 4.44919886 11.32896246 2.8121781 0 1 C0 0.67 0 0.34 0 0 Z " fill="#93B043" transform="translate(128,143)"/>
<path d="M0 0 C1.65 0 3.3 0 5 0 C7 2 7 2 7.3125 4.9375 C7 8 7 8 5.75 9.875 C4 11 4 11 0 11 C0 7.37 0 3.74 0 0 Z " fill="#90B44E" transform="translate(171,123)"/>
<path d="M0 0 C7.54491018 0.88023952 7.54491018 0.88023952 10.375 1.625 C12.11452693 2.20810381 12.11452693 2.20810381 14 1 C13.67 2.32 13.34 3.64 13 5 C9.53058454 4.54177532 6.32604951 4.10868317 3 3 C3 6.63 3 10.26 3 14 C5.97 14.495 5.97 14.495 9 15 C9 15.66 9 16.32 9 17 C4.545 16.01 4.545 16.01 0 15 C0 10.05 0 5.1 0 0 Z " fill="#9BBA62" transform="translate(171,98)"/>
<path d="M0 0 C-7.84071865 4.2254017 -15.00770057 7.98474039 -24 9 C-18.43798264 3.00071712 -8.22830035 -2.74276678 0 0 Z " fill="#F3CEB1" transform="translate(264,217)"/>
<path d="M0 0 C0 0.99 0 1.98 0 3 C-1.74804688 4.37915039 -1.74804688 4.37915039 -4.21875 5.78515625 C-5.13269531 6.30609863 -6.04664063 6.82704102 -6.98828125 7.36376953 C-12.11387808 10.14844447 -17.28403201 12.82631994 -22.5 15.4375 C-23.5828125 15.99115234 -24.665625 16.54480469 -25.78125 17.11523438 C-27.328125 17.89157227 -27.328125 17.89157227 -28.90625 18.68359375 C-29.83759766 19.15337646 -30.76894531 19.62315918 -31.72851562 20.10717773 C-32.85290039 20.54912476 -32.85290039 20.54912476 -34 21 C-34.66 20.67 -35.32 20.34 -36 20 C-17.7495812 10.34644463 -17.7495812 10.34644463 -10.9375 6.875 C-9.83728516 6.31425781 -9.83728516 6.31425781 -8.71484375 5.7421875 C-7 5 -7 5 -5 5 C-5.33 4.01 -5.66 3.02 -6 2 C-4.02 1.34 -2.04 0.68 0 0 Z " fill="#FEF0E2" transform="translate(317,186)"/>
<path d="M0 0 C-1.28207359 2.86001033 -2.49151236 5.07039412 -5 7 C-6.32 7 -7.64 7 -9 7 C-9.061875 7.556875 -9.12375 8.11375 -9.1875 8.6875 C-10.35165517 12.00086472 -12.39458444 13.70475296 -15 16 C-15.99 16.33 -16.98 16.66 -18 17 C-15.21301967 10.89583332 -7.42122137 0 0 0 Z " fill="#FAE0CC" transform="translate(77,147)"/>
<path d="M0 0 C0.33 0 0.66 0 1 0 C1.00410889 0.91700684 1.00821777 1.83401367 1.01245117 2.77880859 C1.03964889 6.2274794 1.08895695 9.67443914 1.15258789 13.12255859 C1.17558344 14.60617348 1.19011973 16.08994734 1.19555664 17.57373047 C1.23181299 25.84575704 1.42030286 32.80048006 6.0324707 40.00634766 C7 42 7 42 6.64916992 44.26318359 C6.43494385 44.83633301 6.22071777 45.40948242 6 46 C5.17779151 44.77730619 4.36766766 43.54648216 3.5625 42.3125 C3.11003906 41.62800781 2.65757812 40.94351563 2.19140625 40.23828125 C-0.32369194 35.51319514 -0.13648841 30.52970374 -0.09765625 25.29296875 C-0.0962413 24.56757401 -0.09482635 23.84217926 -0.09336853 23.09480286 C-0.08779931 20.7923255 -0.07525261 18.48994765 -0.0625 16.1875 C-0.05748102 14.62044412 -0.05291881 13.0533867 -0.04882812 11.48632812 C-0.03783998 7.65751411 -0.02059673 3.82877389 0 0 Z " fill="#D1E4B2" transform="translate(245,131)"/>
<path d="M0 0 C0.94125732 -0.00064453 1.88251465 -0.00128906 2.85229492 -0.00195312 C10.47160966 0.05523235 17.75209192 0.77612907 25.25 2.1875 C25.25 2.5175 25.25 2.8475 25.25 3.1875 C24.3528125 3.1153125 23.455625 3.043125 22.53125 2.96875 C6.20721189 1.16164713 6.20721189 1.16164713 -9.75 3.1875 C-10.08 5.1675 -10.41 7.1475 -10.75 9.1875 C-12.13111722 6.9127187 -12.80694702 5.68578639 -12.5 3 C-10.64149844 -1.49137877 -4.08385325 -0.0028333 0 0 Z " fill="#E3C789" transform="translate(117.75,180.8125)"/>
<path d="M0 0 C0.33 0 0.66 0 1 0 C1.12348196 6.06885317 1.21428371 12.13697742 1.2746582 18.20678711 C1.2998222 20.27202081 1.33395684 22.33716529 1.37719727 24.40209961 C1.43776616 27.36855047 1.46619036 30.33382552 1.48828125 33.30078125 C1.51408768 34.2258699 1.5398941 35.15095856 1.56648254 36.1040802 C1.56753659 38.50621935 1.52927674 40.65689271 1 43 C-1.38598633 45.12573242 -1.38598633 45.12573242 -4 46 C-6.3125 45.6875 -6.3125 45.6875 -8 45 C-2.25 42 -2.25 42 0 42 C0 28.14 0 14.28 0 0 Z " fill="#EEF7DA" transform="translate(85,101)"/>
<path d="M0 0 C0.33 0.66 0.66 1.32 1 2 C0.34 2 -0.32 2 -1 2 C-1 3.98 -1 5.96 -1 8 C-0.01 8.33 0.98 8.66 2 9 C2 9.66 2 10.32 2 11 C11.9 11 21.8 11 32 11 C32 11.33 32 11.66 32 12 C27.49770526 12.09889302 22.99604273 12.17147709 18.49291992 12.21972656 C16.96123238 12.2398398 15.42962161 12.2671345 13.89819336 12.30175781 C11.69625927 12.35029315 9.49534018 12.37296996 7.29296875 12.390625 C6.60849167 12.41127014 5.92401459 12.43191528 5.21879578 12.45318604 C2.05316973 12.45467941 0.41614533 12.37943118 -1.9675293 10.20605469 C-3.51639544 6.89663061 -2.85103188 4.46959152 -2 1 C-1.34 0.67 -0.68 0.34 0 0 Z " fill="#95A845" transform="translate(110,183)"/>
<path d="M0 0 C1.134375 0.020625 2.26875 0.04125 3.4375 0.0625 C0.25776887 3.24223113 -3.83965836 3.62771745 -8.125 4.6875 C-8.99447266 4.91695313 -9.86394531 5.14640625 -10.75976562 5.3828125 C-16.51570593 6.82501678 -21.6314139 7.29131347 -27.5625 7.0625 C-27.5625 6.7325 -27.5625 6.4025 -27.5625 6.0625 C-20.9375 3.9375 -20.9375 3.9375 -17.5625 5.0625 C-17.5625 4.4025 -17.5625 3.7425 -17.5625 3.0625 C-16.17224609 2.86333984 -16.17224609 2.86333984 -14.75390625 2.66015625 C-12.95759766 2.39525391 -12.95759766 2.39525391 -11.125 2.125 C-9.93003906 1.95097656 -8.73507813 1.77695312 -7.50390625 1.59765625 C-3.77413925 0.9190665 -4.01247034 0.07039422 0 0 Z " fill="#EFBE9B" transform="translate(122.5625,256.9375)"/>
<path d="M0 0 C-6.45779636 3.76704788 -13.70627483 4.32162148 -21 4.625 C-21.77472656 4.66367188 -22.54945313 4.70234375 -23.34765625 4.7421875 C-25.23143415 4.83521357 -27.11568256 4.91863175 -29 5 C-28.67 4.34 -28.34 3.68 -28 3 C-25.36028738 2.3445816 -22.8016163 1.81991816 -20.125 1.375 C-19.35937744 1.24311279 -18.59375488 1.11122559 -17.80493164 0.9753418 C-11.84153421 0.00639149 -6.04192491 -0.35233687 0 0 Z " fill="#F3CEB3" transform="translate(179,246)"/>
<path d="M0 0 C-2.54980193 3.14093249 -5.06780441 3.81247177 -8.9375 4.75 C-9.97777344 5.01296875 -11.01804688 5.2759375 -12.08984375 5.546875 C-14.8553723 5.97748079 -16.40063066 5.927004 -19 5 C-18 3 -18 3 -16.1796875 2.18359375 C-3.70781893 -1.85390947 -3.70781893 -1.85390947 0 0 Z " fill="#F4BC92" transform="translate(267,213)"/>
<path d="M0 0 C0 3.13847309 -0.48962669 4.38459003 -1.875 7.125 C-2.22304688 7.82882813 -2.57109375 8.53265625 -2.9296875 9.2578125 C-4 11 -4 11 -6 12 C-5.67 14.64 -5.34 17.28 -5 20 C-7.41396234 17.10324519 -9.38617243 14.40212299 -11 11 C-10.54109375 10.62488281 -10.0821875 10.24976563 -9.609375 9.86328125 C-5.96703891 6.82545052 -2.82808093 3.84619007 0 0 Z " fill="#F5D5C4" transform="translate(44,181)"/>
<path d="M0 0 C5.24972347 4.10037573 9.20962911 8.52964787 13 14 C12.67 14.66 12.34 15.32 12 16 C11.401875 15.34 10.80375 14.68 10.1875 14 C8.12498166 11.6626154 8.12498166 11.6626154 5 12 C4.16180842 10.37750059 3.3295884 8.75191503 2.5 7.125 C2.0359375 6.22007813 1.571875 5.31515625 1.09375 4.3828125 C0 2 0 2 0 0 Z " fill="#B4CC88" transform="translate(224,56)"/>
<path d="M0 0 C2.87608249 0.45221423 5.75072487 0.91155099 8.625 1.375 C9.83736328 1.56449219 9.83736328 1.56449219 11.07421875 1.7578125 C15.55587884 2.48653772 19.72476004 3.40889128 24 5 C23.34 5.66 22.68 6.32 22 7 C19.89453125 6.72265625 19.89453125 6.72265625 17 6 C15.67206128 5.74094813 14.34246972 5.49028827 13.01171875 5.24609375 C11.95307617 5.04790039 11.95307617 5.04790039 10.87304688 4.84570312 C10.15181641 4.71099609 9.43058594 4.57628906 8.6875 4.4375 C7.94693359 4.29892578 7.20636719 4.16035156 6.44335938 4.01757812 C4.62895786 3.67810945 2.81448601 3.33901677 1 3 C0.67 2.01 0.34 1.02 0 0 Z " fill="#C7DE9F" transform="translate(181,38)"/>
<path d="M0 0 C0 2.83967231 -0.40267181 5.23735711 -1 8 C-1.99 8.33 -2.98 8.66 -4 9 C-5.06229844 10.80243056 -5.06229844 10.80243056 -5.82421875 13.03515625 C-6.13037109 13.84404297 -6.43652344 14.65292969 -6.75195312 15.48632812 C-7.21504883 16.7615332 -7.21504883 16.7615332 -7.6875 18.0625 C-8.00783203 18.91650391 -8.32816406 19.77050781 -8.65820312 20.65039062 C-9.44908493 22.76334351 -10.2291202 24.87968513 -11 27 C-12.35938026 22.68065032 -11.12266489 19.79249103 -9.4375 15.75 C-9.16663574 15.08411865 -8.89577148 14.4182373 -8.61669922 13.73217773 C-6.43581788 8.57913851 -3.76102514 4.17447116 0 0 Z " fill="#D1E3AD" transform="translate(99,64)"/>
<path d="M0 0 C-2.76591336 2.76591336 -5.18462299 2.4737411 -9 3 C-9.61617187 3.33773437 -10.23234375 3.67546875 -10.8671875 4.0234375 C-13.61291253 5.28063761 -15.74521068 5.1965426 -18.75 5.125 C-19.73484375 5.10695312 -20.7196875 5.08890625 -21.734375 5.0703125 C-22.85585937 5.03550781 -22.85585937 5.03550781 -24 5 C-23.67 4.34 -23.34 3.68 -23 3 C-22.34 3.33 -21.68 3.66 -21 4 C-21 3.01 -21 2.02 -21 1 C-19.66666667 1.66666667 -18.33333333 2.33333333 -17 3 C-15.23317605 2.58716368 -13.48433309 2.09559419 -11.75 1.5625 C-7.69916279 0.39143011 -4.2526225 -0.34480723 0 0 Z " fill="#F0BD98" transform="translate(192,241)"/>
<path d="M0 0 C2.1875 3 2.1875 3 4 6 C3.67 6.66 3.34 7.32 3 8 C-0.465 6.02 -0.465 6.02 -4 4 C-4.33 4.99 -4.66 5.98 -5 7 C-6.32 6.34 -7.64 5.68 -9 5 C-3.375 0 -3.375 0 0 0 Z " fill="#A08FB2" transform="translate(25,178)"/>
<path d="M0 0 C0.66 0.33 1.32 0.66 2 1 C1.649375 1.928125 1.29875 2.85625 0.9375 3.8125 C-0.55325804 8.87899235 0.31043129 13.84687163 1 19 C-1 17.6875 -1 17.6875 -3 15 C-3.67830332 10.29471697 -4.1342745 5.74057467 -1.47265625 1.65625 C-0.98667969 1.1096875 -0.50070313 0.563125 0 0 Z " fill="#9FBF64" transform="translate(146,95)"/>
<path d="M0 0 C3.6348609 1.2116203 3.76942113 1.94665693 5.4375 5.25 C7.32393655 8.83422944 9.32682413 11.93079807 12 15 C11.01 15.495 11.01 15.495 10 16 C10 15.34 10 14.68 10 14 C9.34 14 8.68 14 8 14 C5.20716472 11.55626913 3.59762108 9.30935795 2 6 C1.34 5.67 0.68 5.34 0 5 C0 3.35 0 1.7 0 0 Z " fill="#6B416B" transform="translate(67,246)"/>
<path d="M0 0 C-21.56828194 7.35792952 -21.56828194 7.35792952 -27 6 C-22.71 5.01 -18.42 4.02 -14 3 C-14 2.34 -14 1.68 -14 1 C-12.23103898 0.63659714 -10.45973374 0.28459117 -8.6875 -0.0625 C-7.70136719 -0.25972656 -6.71523437 -0.45695313 -5.69921875 -0.66015625 C-3 -1 -3 -1 0 0 Z " fill="#FBE4D3" transform="translate(232,233)"/>
<path d="M0 0 C0 3.73397668 -1.37966723 4.75455557 -3.7734375 7.44921875 C-5.18155653 9.06599669 -5.18155653 9.06599669 -6 11.6875 C-7.32345331 14.74798578 -9.07983795 15.53991897 -12 17 C-12 13.53403258 -11.57421137 13.14155249 -9.375 10.64453125 C-8.83359375 10.02255859 -8.2921875 9.40058594 -7.734375 8.75976562 C-7.16203125 8.11716797 -6.5896875 7.47457031 -6 6.8125 C-5.42765625 6.15830078 -4.8553125 5.50410156 -4.265625 4.83007812 C-2.85032102 3.21427275 -1.42600082 1.60637294 0 0 Z " fill="#FCE4CF" transform="translate(58,164)"/>
<path d="M0 0 C1.98 0 3.96 0 6 0 C5.01 0.33 4.02 0.66 3 1 C3.763125 1.680625 4.52625 2.36125 5.3125 3.0625 C8.36365421 6.39748251 9.5595676 8.75872684 11 13 C10.67 13.66 10.34 14.32 10 15 C8.33048421 12.6895094 6.66428386 10.37675417 5 8.0625 C4.52304688 7.40314453 4.04609375 6.74378906 3.5546875 6.06445312 C0 1.11328125 0 1.11328125 0 0 Z " fill="#BACE8E" transform="translate(125,5)"/>
<path d="M0 0 C-2.2898234 1.0044134 -4.5816599 2.00367612 -6.875 3 C-7.85146484 3.42925781 -7.85146484 3.42925781 -8.84765625 3.8671875 C-13.7734375 6 -13.7734375 6 -16 6 C-16 6.66 -16 7.32 -16 8 C-17.98 8.33 -19.96 8.66 -22 9 C-18.96540451 5.57054148 -16.18234083 3.97992818 -11.9375 2.3125 C-10.37322266 1.68794922 -10.37322266 1.68794922 -8.77734375 1.05078125 C-3.18972332 -1.06324111 -3.18972332 -1.06324111 0 0 Z " fill="#C7DCA3" transform="translate(136,42)"/>
<path d="M0 0 C-2.52977291 2.52977291 -4.91089586 3.28555949 -8.25 4.5625 C-9.36890625 4.99691406 -10.4878125 5.43132812 -11.640625 5.87890625 C-14.77843125 6.92605787 -17.72811084 7.5587907 -21 8 C-17.6266693 5.19311831 -13.94024069 3.46249134 -9.9375 1.75 C-9.00067383 1.32847656 -9.00067383 1.32847656 -8.04492188 0.8984375 C-3.36199977 -1.12066659 -3.36199977 -1.12066659 0 0 Z " fill="#FCE9D4" transform="translate(275,171)"/>
<path d="M0 0 C4.31343181 -0.25373128 7.93801182 -0.42037032 12 1.1875 C14 3 14 3 15 5.5 C15 8 15 8 13.5625 9.8125 C13.046875 10.204375 12.53125 10.59625 12 11 C12 8.36 12 5.72 12 3 C6.06 2.01 6.06 2.01 0 1 C0 0.67 0 0.34 0 0 Z " fill="#82923B" transform="translate(191,152)"/>
<path d="M0 0 C-1.09758507 0.84198307 -2.20335317 1.67330671 -3.3125 2.5 C-3.92738281 2.9640625 -4.54226562 3.428125 -5.17578125 3.90625 C-7 5 -7 5 -10 5 C-9.34 6.65 -8.68 8.3 -8 10 C-9.32 10 -10.64 10 -12 10 C-12 7.69 -12 5.38 -12 3 C-10.3789897 2.30314502 -8.75303934 1.61777139 -7.125 0.9375 C-6.22007812 0.55464844 -5.31515625 0.17179688 -4.3828125 -0.22265625 C-2 -1 -2 -1 0 0 Z " fill="#9BB85C" transform="translate(183,140)"/>
<path d="M0 0 C2.3125 0.5 2.3125 0.5 5 2 C6.85905919 5.18495423 8.25825755 8.37753495 7.66796875 12.0859375 C6.78367676 14.61987361 5.44066087 16.74505255 4 19 C3.67 18.34 3.34 17.68 3 17 C3.33 16.01 3.66 15.02 4 14 C4.0685495 12.10529184 4.08480372 10.2083166 4.0625 8.3125 C4.05347656 7.31863281 4.04445312 6.32476562 4.03515625 5.30078125 C4.02355469 4.54152344 4.01195312 3.78226562 4 3 C2.68 2.34 1.36 1.68 0 1 C0 0.67 0 0.34 0 0 Z " fill="#9EBC62" transform="translate(183,117)"/>
<path d="M0 0 C0.99 0.33 1.98 0.66 3 1 C-1.95 7.93 -1.95 7.93 -7 15 C-7.66 13.68 -8.32 12.36 -9 11 C-8.01 11 -7.02 11 -6 11 C-6 10.34 -6 9.68 -6 9 C-5.34 9 -4.68 9 -4 9 C-3.8453125 8.1646875 -3.8453125 8.1646875 -3.6875 7.3125 C-2.86866423 4.55823422 -1.54146219 2.41272343 0 0 Z " fill="#AEC87F" transform="translate(194,17)"/>
<path d="M0 0 C0.99 0.33 1.98 0.66 3 1 C3 1.66 3 2.32 3 3 C4.98 3 6.96 3 9 3 C8.67 3.66 8.34 4.32 8 5 C5.68529088 5.72870472 3.3494053 6.39239518 1 7 C0.01 7.33 -0.98 7.66 -2 8 C-2.33 7.01 -2.66 6.02 -3 5 C-2.34 4.01 -1.68 3.02 -1 2 C-0.34 2.33 0.32 2.66 1 3 C0.67 2.01 0.34 1.02 0 0 Z " fill="#EDB692" transform="translate(85,261)"/>
<path d="M0 0 C0.66 0.33 1.32 0.66 2 1 C1.56802365 5.7517398 0.67230705 7.92000054 -3 11 C-3.042721 9.33388095 -3.04063832 7.66617115 -3 6 C-2.67 5.67 -2.34 5.34 -2 5 C-2.99 4.34 -3.98 3.68 -5 3 C-4.67 2.34 -4.34 1.68 -4 1 C-3.01 1 -2.02 1 -1 1 C-0.67 0.67 -0.34 0.34 0 0 Z " fill="#9BBC5C" transform="translate(200,6)"/>
<path d="M0 0 C1.43791516 0.14168137 2.8753237 0.28851043 4.3125 0.4375 C5.11300781 0.51871094 5.91351563 0.59992188 6.73828125 0.68359375 C9 1 9 1 12 2 C12 4.64 12 7.28 12 10 C11.34 10 10.68 10 10 10 C9.67 10.66 9.34 11.32 9 12 C9.33 9.03 9.66 6.06 10 3 C6.7 2.34 3.4 1.68 0 1 C0 0.67 0 0.34 0 0 Z " fill="#D6C282" transform="translate(191,153)"/>
<path d="M0 0 C-5.36812782 3.86904957 -9.36501601 5.64455443 -16 6 C-16.33 4.02 -16.66 2.04 -17 0 C-16.01 0.495 -16.01 0.495 -15 1 C-15 1.99 -15 2.98 -15 4 C-14.08476562 3.62746094 -13.16953125 3.25492188 -12.2265625 2.87109375 C-11.03804688 2.39800781 -9.84953125 1.92492187 -8.625 1.4375 C-6.84996094 0.72400391 -6.84996094 0.72400391 -5.0390625 -0.00390625 C-2 -1 -2 -1 0 0 Z " fill="#EECEAD" transform="translate(269,175)"/>
<path d="M0 0 C1.41805831 0.28482368 2.83440379 0.57818144 4.25 0.875 C5.03890625 1.03742188 5.8278125 1.19984375 6.640625 1.3671875 C8.96831144 1.99150075 10.89031952 2.84838542 13 4 C13.1875 6.375 13.1875 6.375 13 9 C12.01 9.66 11.02 10.32 10 11 C10 8.69 10 6.38 10 4 C9.278125 3.87625 8.55625 3.7525 7.8125 3.625 C5.04278106 3.0095069 2.6029646 2.11555626 0 1 C0 0.67 0 0.34 0 0 Z " fill="#D8E9BA" transform="translate(173,89)"/>
<path d="M0 0 C2.475 0.99 2.475 0.99 5 2 C5.33 4.31 5.66 6.62 6 9 C1.59085217 10.10228696 -2.48382401 10.07654536 -7 10 C-7 9.67 -7 9.34 -7 9 C-1.555 8.01 -1.555 8.01 4 7 C3.01 5.824375 3.01 5.824375 2 4.625 C0 2 0 2 0 0 Z " fill="#C8DD9E" transform="translate(144,31)"/>
<path d="M0 0 C7.26 0 14.52 0 22 0 C21.01 1.65 20.02 3.3 19 5 C18.34 4.01 17.68 3.02 17 2 C14.06402461 1.61615491 11.31972627 1.396157 8.375 1.3125 C7.57320312 1.27833984 6.77140625 1.24417969 5.9453125 1.20898438 C3.96403682 1.12643122 1.98203963 1.06154084 0 1 C0 0.67 0 0.34 0 0 Z " fill="#A5BD79" transform="translate(184,5)"/>
<path d="M0 0 C3.50935186 0 6.56484998 0.37542727 10 1 C10 1.99 10 2.98 10 4 C7.36 4 4.72 4 2 4 C1.34 2.68 0.68 1.36 0 0 Z " fill="#C7C1D0" transform="translate(45,274)"/>
<path d="M0 0 C-0.57492188 0.28617188 -1.14984375 0.57234375 -1.7421875 0.8671875 C-3.1891389 1.59316658 -4.63225808 2.3268655 -6.0703125 3.0703125 C-6.74835938 3.41835937 -7.42640625 3.76640625 -8.125 4.125 C-8.80820313 4.47820312 -9.49140625 4.83140625 -10.1953125 5.1953125 C-12 6 -12 6 -14 6 C-13.67 4.68 -13.34 3.36 -13 2 C-8.46298506 0.54815522 -4.81938524 -0.23509196 0 0 Z " fill="#7F953B" transform="translate(240,185)"/>
<path d="M0 0 C0.33 0.99 0.66 1.98 1 3 C-1.16099373 5.16099373 -2.5210418 5.71563716 -5.375 6.6875 C-6.14585937 6.95949219 -6.91671875 7.23148438 -7.7109375 7.51171875 C-10 8 -10 8 -14 7 C-9.38 4.69 -4.76 2.38 0 0 Z " fill="#909D48" transform="translate(192,177)"/>
<path d="M0 0 C1.32 0.33 2.64 0.66 4 1 C4.33 3.31 4.66 5.62 5 8 C5.99 8.33 6.98 8.66 8 9 C7.67 9.99 7.34 10.98 7 12 C3.66488612 9.0098979 1.78478881 6.10501426 0 2 C0 1.34 0 0.68 0 0 Z " fill="#D9A697" transform="translate(70,247)"/>
<path d="M0 0 C0 0.33 0 0.66 0 1 C-0.59167969 1.03738281 -1.18335938 1.07476562 -1.79296875 1.11328125 C-6.74301592 1.52511225 -9.76417121 2.29377605 -14 5 C-16.8125 5.1875 -16.8125 5.1875 -19 5 C-18.01 4.34 -17.02 3.68 -16 3 C-15.34 2.46375 -14.68 1.9275 -14 1.375 C-9.43643305 -0.71663485 -4.94334478 -0.23374835 0 0 Z " fill="#F6CCAE" transform="translate(309,160)"/>
<path d="M0 0 C0.33 0.66 0.66 1.32 1 2 C0.34 2 -0.32 2 -1 2 C-1 3.98 -1 5.96 -1 8 C-0.01 8.33 0.98 8.66 2 9 C2 9.66 2 10.32 2 11 C2.66 11.33 3.32 11.66 4 12 C0 12 0 12 -1.8125 10.4375 C-3.49538999 6.98314687 -2.89812761 4.66159719 -2 1 C-1.34 0.67 -0.68 0.34 0 0 Z " fill="#A2AD4E" transform="translate(110,183)"/>
<path d="M0 0 C-5.11356021 2.98291012 -11.10482642 4.36844835 -17 4 C-12.1655758 -0.44767026 -6.26523716 -0.15281066 0 0 Z " fill="#FAE3D2" transform="translate(196,242)"/>
<path d="M0 0 C0 0.99 0 1.98 0 3 C-2.08203125 4.640625 -2.08203125 4.640625 -4.8125 6.25 C-6.15248047 7.06210938 -6.15248047 7.06210938 -7.51953125 7.890625 C-10 9 -10 9 -13 8 C-7.25 5 -7.25 5 -5 5 C-5.33 4.01 -5.66 3.02 -6 2 C-4.02 1.34 -2.04 0.68 0 0 Z " fill="#FCE8DA" transform="translate(317,186)"/>
<path d="M0 0 C0.33 0.99 0.66 1.98 1 3 C1.66 3.103125 2.32 3.20625 3 3.3125 C6.83841009 4.19213564 10.33096691 5.56969896 14 7 C14 7.33 14 7.66 14 8 C12.02 8 10.04 8 8 8 C8 7.34 8 6.68 8 6 C6.35 6 4.7 6 3 6 C3 5.34 3 4.68 3 4 C2.01 4 1.02 4 0 4 C0 2.68 0 1.36 0 0 Z " fill="#A4C36A" transform="translate(143,136)"/>
<path d="M0 0 C0.66 0 1.32 0 2 0 C2 0.66 2 1.32 2 2 C3.32 2.33 4.64 2.66 6 3 C6.66 5.64 7.32 8.28 8 11 C4.31993178 7.61831569 2.0214155 4.57478244 0 0 Z " fill="#BBD38A" transform="translate(136,20)"/>
<path d="M0 0 C-1 2 -1 2 -3.5625 3.125 C-7.58289462 4.14837318 -10.86509813 4.14258282 -15 4 C-15 3.67 -15 3.34 -15 3 C-13.7625 2.71125 -12.525 2.4225 -11.25 2.125 C-8.82991284 1.53171585 -6.91478895 0.95624297 -4.6875 -0.1875 C-3 -1 -3 -1 0 0 Z " fill="#F1BE99" transform="translate(233,230)"/>
<path d="M0 0 C3.78449552 1.26149851 4.13176857 2.58844695 6 6 C6.99 7.485 6.99 7.485 8 9 C7.67 9.99 7.34 10.98 7 12 C5.82767315 10.3790787 4.6622923 8.75313167 3.5 7.125 C2.8503125 6.22007812 2.200625 5.31515625 1.53125 4.3828125 C0 2 0 2 0 0 Z " fill="#EABBAE" transform="translate(46,211)"/>
<path d="M0 0 C2.64 0 5.28 0 8 0 C8 3.3 8 6.6 8 10 C7.67 10 7.34 10 7 10 C7 7.03 7 4.06 7 1 C4.69 1.66 2.38 2.32 0 3 C0 2.01 0 1.02 0 0 Z " fill="#A6C26F" transform="translate(164,79)"/>
<path d="M0 0 C0.66 0.33 1.32 0.66 2 1 C0 4 0 4 -3 5 C-4.20882096 7.00016466 -4.20882096 7.00016466 -5 9 C-5.66 9 -6.32 9 -7 9 C-5.64978174 4.58110387 -3.73884332 2.65654657 0 0 Z " fill="#E0F0C7" transform="translate(153,91)"/>
<path d="M0 0 C1.21816406 0.03480469 1.21816406 0.03480469 2.4609375 0.0703125 C3.68683594 0.09738281 3.68683594 0.09738281 4.9375 0.125 C5.87722656 0.15980469 5.87722656 0.15980469 6.8359375 0.1953125 C6.5059375 1.1853125 6.1759375 2.1753125 5.8359375 3.1953125 C2.5359375 2.8653125 -0.7640625 2.5353125 -4.1640625 2.1953125 C-2.1640625 0.1953125 -2.1640625 0.1953125 0 0 Z " fill="#91B751" transform="translate(138.1640625,40.8046875)"/>
<path d="M0 0 C-2 3 -2 3 -4.1640625 3.51171875 C-4.97617188 3.56972656 -5.78828125 3.62773437 -6.625 3.6875 C-7.85089844 3.78611328 -7.85089844 3.78611328 -9.1015625 3.88671875 C-9.72804687 3.92410156 -10.35453125 3.96148437 -11 4 C-9.71264403 1.42528807 -8.71510189 1.29583343 -6.0625 0.3125 C-5.35222656 0.04050781 -4.64195312 -0.23148438 -3.91015625 -0.51171875 C-2 -1 -2 -1 0 0 Z " fill="#D7C283" transform="translate(253,181)"/>
<path d="M0 0 C1.21236328 0.02707031 1.21236328 0.02707031 2.44921875 0.0546875 C3.37154297 0.08949219 3.37154297 0.08949219 4.3125 0.125 C1.59310541 1.5826935 -0.93504273 2.54942664 -3.9375 3.25 C-5.175 3.53875 -6.4125 3.8275 -7.6875 4.125 C-7.6875 3.465 -7.6875 2.805 -7.6875 2.125 C-4.48369983 -0.01086678 -3.66810033 -0.10632175 0 0 Z " fill="#F7DDCD" transform="translate(91.6875,265.875)"/>
<path d="M0 0 C3 1 3 1 4.75 3.3125 C6.14972335 6.32190521 5.95287489 6.98041673 5 10 C4.16121545 8.71186658 3.32913217 7.41936744 2.5 6.125 C2.0359375 5.40570313 1.571875 4.68640625 1.09375 3.9453125 C0 2 0 2 0 0 Z " fill="#B1C78B" transform="translate(246,167)"/>
<path d="M0 0 C0.99 0.99 1.98 1.98 3 3 C2.34 4.32 1.68 5.64 1 7 C0.01 7 -0.98 7 -2 7 C-1.34 4.69 -0.68 2.38 0 0 Z " fill="#8C9E42" transform="translate(201,163)"/>
<path d="M0 0 C-6.75 4 -6.75 4 -9 4 C-8.67 2.68 -8.34 1.36 -8 0 C-4.71303767 -0.79953138 -3.28976808 -1.09658936 0 0 Z " fill="#F9E1CE" transform="translate(281,208)"/>
<path d="M0 0 C0.33 0.66 0.66 1.32 1 2 C3.97 1.34 6.94 0.68 10 0 C10 0.66 10 1.32 10 2 C6.78548731 3.60725635 3.56387464 3.05748185 0 3 C0 2.01 0 1.02 0 0 Z " fill="#EFBD98" transform="translate(208,234)"/>
<path d="M0 0 C0.33 0.99 0.66 1.98 1 3 C-3.43076923 6.07692308 -3.43076923 6.07692308 -6.3125 5.6875 C-6.869375 5.460625 -7.42625 5.23375 -8 5 C-2.25 2 -2.25 2 0 2 C0 1.34 0 0.68 0 0 Z " fill="#FBE5D1" transform="translate(85,141)"/>
<path d="M0 0 C-0.33 0.99 -0.66 1.98 -1 3 C-3.97 2.67 -6.94 2.34 -10 2 C-10 1.67 -10 1.34 -10 1 C-6.59437148 0.22157062 -3.49234244 -0.09978121 0 0 Z " fill="#9CBC5E" transform="translate(161,131)"/>
<path d="M0 0 C0.268125 0.639375 0.53625 1.27875 0.8125 1.9375 C1.88667752 4.33131686 1.88667752 4.33131686 5 5 C5 6.32 5 7.64 5 9 C1.125 7.125 1.125 7.125 0 6 C-0.04080783 4.00041636 -0.04254356 1.99954746 0 0 Z " fill="#A7C571" transform="translate(154,101)"/>
<path d="M0 0 C1.423125 0.2784375 1.423125 0.2784375 2.875 0.5625 C5.89868793 1.28686632 5.89868793 1.28686632 8 0 C7.67 1.32 7.34 2.64 7 4 C4.69 3.67 2.38 3.34 0 3 C0 2.01 0 1.02 0 0 Z " fill="#98B85B" transform="translate(177,99)"/>
<path d="M0 0 C6.625 -0.25 6.625 -0.25 10 2 C7.25 2.6875 7.25 2.6875 4 3 C1.625 1.5625 1.625 1.5625 0 0 Z " fill="#B7CF82" transform="translate(195,42)"/>
<path d="M0 0 C2.97 0 5.94 0 9 0 C9 0.33 9 0.66 9 1 C7.02 1 5.04 1 3 1 C3 1.66 3 2.32 3 3 C1.68 3 0.36 3 -1 3 C-0.67 2.01 -0.34 1.02 0 0 Z " fill="#EEBE9B" transform="translate(138,252)"/>
<path d="M0 0 C2.31 0.33 4.62 0.66 7 1 C4.37801226 3.15377564 2.35595828 4.40072174 -1 5 C-0.34 4.01 0.32 3.02 1 2 C0.67 1.34 0.34 0.68 0 0 Z " fill="#F9DEC4" transform="translate(265,211)"/>
<path d="M0 0 C-3.96 1.98 -3.96 1.98 -8 4 C-8 3.01 -8 2.02 -8 1 C-4.59449725 -1.06762667 -4.18836538 -1.04709135 0 0 Z " fill="#F5CDB2" transform="translate(286,204)"/>
<path d="M0 0 C0.6875 1.8125 0.6875 1.8125 1 4 C-0.4375 5.75 -0.4375 5.75 -2 7 C-2.99 6.67 -3.98 6.34 -5 6 C-3.35 4.02 -1.7 2.04 0 0 Z " fill="#88993F" transform="translate(198,170)"/>
<path d="" fill="#FFFFFF" transform="translate(0,0)"/>
<path d="" fill="#FFFFFF" transform="translate(0,0)"/>
<path d="" fill="#FFFFFF" transform="translate(0,0)"/>
<path d="" fill="#FFFFFF" transform="translate(0,0)"/>
<path d="" fill="#00FFFF" transform="translate(0,0)"/>
<path d="" fill="#FFFFFF" transform="translate(0,0)"/>
<path d="" fill="#FFFFFF" transform="translate(0,0)"/>
<path d="" fill="#FFFFFF" transform="translate(0,0)"/>
<path d="" fill="#FFFFFF" transform="translate(0,0)"/>
<path d="" fill="#FFFFFF" transform="translate(0,0)"/>
<path d="" fill="#FFFFFF" transform="translate(0,0)"/>
<path d="" fill="#FFFFFF" transform="translate(0,0)"/>
<path d="" fill="#FFFFFF" transform="translate(0,0)"/>
<path d="" fill="#FFFFFF" transform="translate(0,0)"/>
<path d="" fill="#FFFFFF" transform="translate(0,0)"/>
<path d="" fill="#FFFFFF" transform="translate(0,0)"/>
<path d="" fill="#FFFFFF" transform="translate(0,0)"/>
<path d="" fill="#FFFFFF" transform="translate(0,0)"/>
<path d="" fill="#FFFFFF" transform="translate(0,0)"/>
<path d="" fill="#FFFFFF" transform="translate(0,0)"/>
<path d="" fill="#FFFFFF" transform="translate(0,0)"/>
<path d="" fill="#FFFFFF" transform="translate(0,0)"/>
<path d="" fill="#FFFFFF" transform="translate(0,0)"/>
<path d="" fill="#FFFFFF" transform="translate(0,0)"/>
<path d="" fill="#FFFFFF" transform="translate(0,0)"/>
<path d="" fill="#FFFFFF" transform="translate(0,0)"/>
<path d="" fill="#FFFFFF" transform="translate(0,0)"/>
<path d="" fill="#FFFFFF" transform="translate(0,0)"/>
<path d="" fill="#FFFFFF" transform="translate(0,0)"/>
<path d="" fill="#FFFFFF" transform="translate(0,0)"/>
<path d="" fill="#FFFFFF" transform="translate(0,0)"/>
<path d="" fill="#FFFFFF" transform="translate(0,0)"/>
<path d="" fill="#FFFFFF" transform="translate(0,0)"/>
<path d="" fill="#FFFFFF" transform="translate(0,0)"/>
<path d="" fill="#FFFFFF" transform="translate(0,0)"/>
<path d="" fill="#FFFFFF" transform="translate(0,0)"/>
<path d="" fill="#FFFFFF" transform="translate(0,0)"/>
<path d="" fill="#FFFFFF" transform="translate(0,0)"/>
<path d="" fill="#FFFFFF" transform="translate(0,0)"/>
<path d="" fill="#FFFFFF" transform="translate(0,0)"/>
<path d="" fill="#FFFFFF" transform="translate(0,0)"/>
<path d="" fill="#FFFFFF" transform="translate(0,0)"/>
<path d="" fill="#FFFFFF" transform="translate(0,0)"/>
</svg>
